<?xml version="1.0" encoding="UTF-8" standalone="no"?>
<!DOCTYPE svg PUBLIC "-//W3C//DTD SVG 1.1//EN"
 "http://www.w3.org/Graphics/SVG/1.1/DTD/svg11.dtd">
<!-- Generated by graphviz version 14.1.5 (20260411.2331)
 -->
<!-- Title: CFG Pages: 1 -->
<svg width="269pt" height="764pt"
 viewBox="0.00 0.00 269.00 764.00" xmlns="http://www.w3.org/2000/svg" xmlns:xlink="http://www.w3.org/1999/xlink">
<g id="graph0" class="graph" transform="scale(1 1) rotate(0) translate(4 760)">
<title>CFG</title>
<!-- 0 -->
<g id="node1" class="node">
<title>0</title>
<ellipse fill="none" stroke="black" cx="130.68" cy="-738" rx="87.18" ry="18"/>
<text xml:space="preserve" text-anchor="middle" x="130.68" y="-732.95" font-family="Times,serif" font-size="14.00">0: a = [1.4, 2.8, 3.9]</text>
</g>
<!-- 1 -->
<g id="node2" class="node">
<title>1</title>
<ellipse fill="none" stroke="black" cx="130.68" cy="-666" rx="87.69" ry="18"/>
<text xml:space="preserve" text-anchor="middle" x="130.68" y="-660.95" font-family="Times,serif" font-size="14.00">1: b = [4.2, 5.4, 6.0]</text>
</g>
<!-- 0&#45;&gt;1 -->
<g id="edge1" class="edge">
<title>0&#45;&gt;1</title>
<path fill="none" stroke="black" d="M130.68,-719.7C130.68,-712.41 130.68,-703.73 130.68,-695.54"/>
<polygon fill="black" stroke="black" points="134.18,-695.62 130.68,-685.62 127.18,-695.62 134.18,-695.62"/>
</g>
<!-- 2 -->
<g id="node3" class="node">
<title>2</title>
<ellipse fill="none" stroke="black" cx="130.68" cy="-594" rx="54.93" ry="18"/>
<text xml:space="preserve" text-anchor="middle" x="130.68" y="-588.95" font-family="Times,serif" font-size="14.00">2: c = a + b</text>
</g>
<!-- 1&#45;&gt;2 -->
<g id="edge2" class="edge">
<title>1&#45;&gt;2</title>
<path fill="none" stroke="black" d="M130.68,-647.7C130.68,-640.41 130.68,-631.73 130.68,-623.54"/>
<polygon fill="black" stroke="black" points="134.18,-623.62 130.68,-613.62 127.18,-623.62 134.18,-623.62"/>
</g>
<!-- 3 -->
<g id="node4" class="node">
<title>3</title>
<ellipse fill="none" stroke="black" cx="130.68" cy="-522" rx="50.84" ry="18"/>
<text xml:space="preserve" text-anchor="middle" x="130.68" y="-516.95" font-family="Times,serif" font-size="14.00">3: &#160;print(c)</text>
</g>
<!-- 2&#45;&gt;3 -->
<g id="edge3" class="edge">
<title>2&#45;&gt;3</title>
<path fill="none" stroke="black" d="M130.68,-575.7C130.68,-568.41 130.68,-559.73 130.68,-551.54"/>
<polygon fill="black" stroke="black" points="134.18,-551.62 130.68,-541.62 127.18,-551.62 134.18,-551.62"/>
</g>
<!-- 4 -->
<g id="node5" class="node">
<title>4</title>
<ellipse fill="none" stroke="black" cx="130.68" cy="-450" rx="87.69" ry="18"/>
<text xml:space="preserve" text-anchor="middle" x="130.68" y="-444.95" font-family="Times,serif" font-size="14.00">4: x = [1.0, 2.0, 3.0]</text>
</g>
<!-- 3&#45;&gt;4 -->
<g id="edge4" class="edge">
<title>3&#45;&gt;4</title>
<path fill="none" stroke="black" d="M130.68,-503.7C130.68,-496.41 130.68,-487.73 130.68,-479.54"/>
<polygon fill="black" stroke="black" points="134.18,-479.62 130.68,-469.62 127.18,-479.62 134.18,-479.62"/>
</g>
<!-- 5 -->
<g id="node6" class="node">
<title>5</title>
<ellipse fill="none" stroke="black" cx="130.68" cy="-378" rx="130.68" ry="18"/>
<text xml:space="preserve" text-anchor="middle" x="130.68" y="-372.95" font-family="Times,serif" font-size="14.00">5: y = x.tpos + (b.tpos + c.tpos)</text>
</g>
<!-- 4&#45;&gt;5 -->
<g id="edge5" class="edge">
<title>4&#45;&gt;5</title>
<path fill="none" stroke="black" d="M130.68,-431.7C130.68,-424.41 130.68,-415.73 130.68,-407.54"/>
<polygon fill="black" stroke="black" points="134.18,-407.62 130.68,-397.62 127.18,-407.62 134.18,-407.62"/>
</g>
<!-- 6 -->
<g id="node7" class="node">
<title>6</title>
<ellipse fill="none" stroke="black" cx="130.68" cy="-306" rx="53.91" ry="18"/>
<text xml:space="preserve" text-anchor="middle" x="130.68" y="-300.95" font-family="Times,serif" font-size="14.00">6: z = x.len</text>
</g>
<!-- 5&#45;&gt;6 -->
<g id="edge6" class="edge">
<title>5&#45;&gt;6</title>
<path fill="none" stroke="black" d="M130.68,-359.7C130.68,-352.41 130.68,-343.73 130.68,-335.54"/>
<polygon fill="black" stroke="black" points="134.18,-335.62 130.68,-325.62 127.18,-335.62 134.18,-335.62"/>
</g>
<!-- 7 -->
<g id="node8" class="node">
<title>7</title>
<ellipse fill="none" stroke="black" cx="130.68" cy="-234" rx="60.05" ry="18"/>
<text xml:space="preserve" text-anchor="middle" x="130.68" y="-228.95" font-family="Times,serif" font-size="14.00">7: w = x.dim</text>
</g>
<!-- 6&#45;&gt;7 -->
<g id="edge7" class="edge">
<title>6&#45;&gt;7</title>
<path fill="none" stroke="black" d="M130.68,-287.7C130.68,-280.41 130.68,-271.73 130.68,-263.54"/>
<polygon fill="black" stroke="black" points="134.18,-263.62 130.68,-253.62 127.18,-263.62 134.18,-263.62"/>
</g>
<!-- 8 -->
<g id="node9" class="node">
<title>8</title>
<ellipse fill="none" stroke="black" cx="130.68" cy="-162" rx="51.35" ry="18"/>
<text xml:space="preserve" text-anchor="middle" x="130.68" y="-156.95" font-family="Times,serif" font-size="14.00">8: &#160;print(y)</text>
</g>
<!-- 7&#45;&gt;8 -->
<g id="edge8" class="edge">
<title>7&#45;&gt;8</title>
<path fill="none" stroke="black" d="M130.68,-215.7C130.68,-208.41 130.68,-199.73 130.68,-191.54"/>
<polygon fill="black" stroke="black" points="134.18,-191.62 130.68,-181.62 127.18,-191.62 134.18,-191.62"/>
</g>
<!-- 9 -->
<g id="node10" class="node">
<title>9</title>
<ellipse fill="none" stroke="black" cx="130.68" cy="-90" rx="50.84" ry="18"/>
<text xml:space="preserve" text-anchor="middle" x="130.68" y="-84.95" font-family="Times,serif" font-size="14.00">9: &#160;print(z)</text>
</g>
<!-- 8&#45;&gt;9 -->
<g id="edge9" class="edge">
<title>8&#45;&gt;9</title>
<path fill="none" stroke="black" d="M130.68,-143.7C130.68,-136.41 130.68,-127.73 130.68,-119.54"/>
<polygon fill="black" stroke="black" points="134.18,-119.62 130.68,-109.62 127.18,-119.62 134.18,-119.62"/>
</g>
<!-- 10 -->
<g id="node11" class="node">
<title>10</title>
<ellipse fill="none" stroke="black" cx="130.68" cy="-18" rx="58" ry="18"/>
<text xml:space="preserve" text-anchor="middle" x="130.68" y="-12.95" font-family="Times,serif" font-size="14.00">10: &#160;print(w)</text>
</g>
<!-- 9&#45;&gt;10 -->
<g id="edge10" class="edge">
<title>9&#45;&gt;10</title>
<path fill="none" stroke="black" d="M130.68,-71.7C130.68,-64.41 130.68,-55.73 130.68,-47.54"/>
<polygon fill="black" stroke="black" points="134.18,-47.62 130.68,-37.62 127.18,-47.62 134.18,-47.62"/>
</g>
</g>
</svg>
